<mxfile host="Electron" modified="2023-07-07T14:03:19.904Z" agent="Mozilla/5.0 (Macintosh; Intel Mac OS X 10_15_7) AppleWebKit/537.36 (KHTML, like Gecko) draw.io/21.6.1 Chrome/112.0.5615.204 Electron/24.6.1 Safari/537.36" etag="OAWd9xGoJ128t4XWq_pb" version="21.6.1" type="device">
  <diagram name="Page-1" id="0fY4fIKSZo-GE6OCrPNR">
    <mxGraphModel dx="1120" dy="855" grid="1" gridSize="10" guides="1" tooltips="1" connect="1" arrows="1" fold="1" page="1" pageScale="1" pageWidth="1169" pageHeight="827" math="0" shadow="0">
      <root>
        <mxCell id="0" />
        <mxCell id="1" parent="0" />
        <mxCell id="vn9ZUetdtOLam17VPIby-39" value="" style="rounded=1;whiteSpace=wrap;html=1;" parent="1" vertex="1">
          <mxGeometry x="10" width="1020" height="740" as="geometry" />
        </mxCell>
        <mxCell id="vn9ZUetdtOLam17VPIby-8" value="&lt;b style=&quot;border-color: var(--border-color); font-size: 16px;&quot;&gt;Application&lt;br&gt;&lt;/b&gt;" style="swimlane;fontStyle=0;childLayout=stackLayout;horizontal=1;startSize=30;horizontalStack=0;resizeParent=1;resizeParentMax=0;resizeLast=0;collapsible=1;marginBottom=0;whiteSpace=wrap;html=1;fontSize=16;fillColor=#d5e8d4;strokeColor=#82b366;" parent="1" vertex="1">
          <mxGeometry x="70" y="120" width="205" height="90" as="geometry">
            <mxRectangle x="370" y="354" width="140" height="30" as="alternateBounds" />
          </mxGeometry>
        </mxCell>
        <mxCell id="vn9ZUetdtOLam17VPIby-9" value="InitMessaging()" style="text;strokeColor=none;fillColor=none;align=left;verticalAlign=middle;spacingLeft=4;spacingRight=4;overflow=hidden;points=[[0,0.5],[1,0.5]];portConstraint=eastwest;rotatable=0;whiteSpace=wrap;html=1;fontSize=16;" parent="vn9ZUetdtOLam17VPIby-8" vertex="1">
          <mxGeometry y="30" width="205" height="30" as="geometry" />
        </mxCell>
        <mxCell id="vn9ZUetdtOLam17VPIby-10" value="startConsuming" style="text;strokeColor=none;fillColor=none;align=left;verticalAlign=middle;spacingLeft=4;spacingRight=4;overflow=hidden;points=[[0,0.5],[1,0.5]];portConstraint=eastwest;rotatable=0;whiteSpace=wrap;html=1;fontSize=16;" parent="vn9ZUetdtOLam17VPIby-8" vertex="1">
          <mxGeometry y="60" width="205" height="30" as="geometry" />
        </mxCell>
        <mxCell id="vn9ZUetdtOLam17VPIby-12" value="&lt;b&gt;&lt;font style=&quot;font-size: 16px;&quot;&gt;InitMessaging&lt;/font&gt;&lt;/b&gt;" style="swimlane;fontStyle=0;childLayout=stackLayout;horizontal=1;startSize=30;horizontalStack=0;resizeParent=1;resizeParentMax=0;resizeLast=0;collapsible=1;marginBottom=0;whiteSpace=wrap;html=1;fillColor=#dae8fc;strokeColor=#6c8ebf;" parent="1" vertex="1">
          <mxGeometry x="610" y="120" width="350" height="120" as="geometry" />
        </mxCell>
        <mxCell id="vn9ZUetdtOLam17VPIby-13" value="Create connection object" style="text;strokeColor=none;fillColor=none;align=left;verticalAlign=middle;spacingLeft=4;spacingRight=4;overflow=hidden;points=[[0,0.5],[1,0.5]];portConstraint=eastwest;rotatable=0;whiteSpace=wrap;html=1;fontSize=14;" parent="vn9ZUetdtOLam17VPIby-12" vertex="1">
          <mxGeometry y="30" width="350" height="30" as="geometry" />
        </mxCell>
        <mxCell id="vn9ZUetdtOLam17VPIby-14" value="Register queue" style="text;strokeColor=none;fillColor=none;align=left;verticalAlign=middle;spacingLeft=4;spacingRight=4;overflow=hidden;points=[[0,0.5],[1,0.5]];portConstraint=eastwest;rotatable=0;whiteSpace=wrap;html=1;fontSize=14;" parent="vn9ZUetdtOLam17VPIby-12" vertex="1">
          <mxGeometry y="60" width="350" height="30" as="geometry" />
        </mxCell>
        <mxCell id="vn9ZUetdtOLam17VPIby-15" value="Connect to messaging exchange" style="text;strokeColor=none;fillColor=none;align=left;verticalAlign=middle;spacingLeft=4;spacingRight=4;overflow=hidden;points=[[0,0.5],[1,0.5]];portConstraint=eastwest;rotatable=0;whiteSpace=wrap;html=1;fontSize=14;" parent="vn9ZUetdtOLam17VPIby-12" vertex="1">
          <mxGeometry y="90" width="350" height="30" as="geometry" />
        </mxCell>
        <mxCell id="vn9ZUetdtOLam17VPIby-16" style="edgeStyle=orthogonalEdgeStyle;rounded=0;orthogonalLoop=1;jettySize=auto;html=1;fillColor=#d5e8d4;strokeColor=#82b366;strokeWidth=3;" parent="1" source="vn9ZUetdtOLam17VPIby-9" target="vn9ZUetdtOLam17VPIby-13" edge="1">
          <mxGeometry relative="1" as="geometry" />
        </mxCell>
        <mxCell id="vn9ZUetdtOLam17VPIby-17" value="&lt;b style=&quot;border-color: var(--border-color); font-size: 16px;&quot;&gt;Consume&lt;/b&gt;" style="swimlane;fontStyle=0;childLayout=stackLayout;horizontal=1;startSize=30;horizontalStack=0;resizeParent=1;resizeParentMax=0;resizeLast=0;collapsible=1;marginBottom=0;whiteSpace=wrap;html=1;fillColor=#dae8fc;strokeColor=#6c8ebf;" parent="1" vertex="1">
          <mxGeometry x="610" y="341" width="350" height="90" as="geometry" />
        </mxCell>
        <mxCell id="vn9ZUetdtOLam17VPIby-18" value="Start consuming from queue" style="text;strokeColor=none;fillColor=none;align=left;verticalAlign=middle;spacingLeft=4;spacingRight=4;overflow=hidden;points=[[0,0.5],[1,0.5]];portConstraint=eastwest;rotatable=0;whiteSpace=wrap;html=1;fontSize=14;" parent="vn9ZUetdtOLam17VPIby-17" vertex="1">
          <mxGeometry y="30" width="350" height="30" as="geometry" />
        </mxCell>
        <mxCell id="vn9ZUetdtOLam17VPIby-19" value="Switch on received message type" style="text;strokeColor=none;fillColor=none;align=left;verticalAlign=middle;spacingLeft=4;spacingRight=4;overflow=hidden;points=[[0,0.5],[1,0.5]];portConstraint=eastwest;rotatable=0;whiteSpace=wrap;html=1;fontSize=14;" parent="vn9ZUetdtOLam17VPIby-17" vertex="1">
          <mxGeometry y="60" width="350" height="30" as="geometry" />
        </mxCell>
        <mxCell id="vn9ZUetdtOLam17VPIby-21" style="edgeStyle=orthogonalEdgeStyle;rounded=0;orthogonalLoop=1;jettySize=auto;html=1;strokeWidth=3;fillColor=#d5e8d4;strokeColor=#82b366;" parent="1" source="vn9ZUetdtOLam17VPIby-10" target="vn9ZUetdtOLam17VPIby-17" edge="1">
          <mxGeometry relative="1" as="geometry">
            <Array as="points">
              <mxPoint x="470" y="195" />
              <mxPoint x="470" y="290" />
              <mxPoint x="785" y="290" />
            </Array>
          </mxGeometry>
        </mxCell>
        <mxCell id="vn9ZUetdtOLam17VPIby-22" value="&lt;font style=&quot;font-size: 16px;&quot;&gt;From: QueueName&lt;/font&gt;" style="edgeLabel;html=1;align=center;verticalAlign=middle;resizable=0;points=[];" parent="vn9ZUetdtOLam17VPIby-21" vertex="1" connectable="0">
          <mxGeometry x="0.2958" relative="1" as="geometry">
            <mxPoint x="-254" y="-80" as="offset" />
          </mxGeometry>
        </mxCell>
        <mxCell id="vn9ZUetdtOLam17VPIby-25" value="&lt;b style=&quot;border-color: var(--border-color); font-size: 16px;&quot;&gt;MessageHandler&lt;/b&gt;" style="swimlane;fontStyle=0;childLayout=stackLayout;horizontal=1;startSize=30;horizontalStack=0;resizeParent=1;resizeParentMax=0;resizeLast=0;collapsible=1;marginBottom=0;whiteSpace=wrap;html=1;fillColor=#dae8fc;strokeColor=#6c8ebf;" parent="1" vertex="1">
          <mxGeometry x="590" y="550" width="370" height="120" as="geometry" />
        </mxCell>
        <mxCell id="vn9ZUetdtOLam17VPIby-54" value="Pack message into protobuf message with correct type" style="text;strokeColor=none;fillColor=none;align=left;verticalAlign=middle;spacingLeft=4;spacingRight=4;overflow=hidden;points=[[0,0.5],[1,0.5]];portConstraint=eastwest;rotatable=0;whiteSpace=wrap;html=1;fontSize=14;" parent="vn9ZUetdtOLam17VPIby-25" vertex="1">
          <mxGeometry y="30" width="370" height="30" as="geometry" />
        </mxCell>
        <mxCell id="vn9ZUetdtOLam17VPIby-26" value="Pack protobuf message into &#39;Any&#39; type" style="text;strokeColor=none;fillColor=none;align=left;verticalAlign=middle;spacingLeft=4;spacingRight=4;overflow=hidden;points=[[0,0.5],[1,0.5]];portConstraint=eastwest;rotatable=0;whiteSpace=wrap;html=1;fontSize=14;" parent="vn9ZUetdtOLam17VPIby-25" vertex="1">
          <mxGeometry y="60" width="370" height="30" as="geometry" />
        </mxCell>
        <mxCell id="vn9ZUetdtOLam17VPIby-29" value="Send to connected main container" style="text;strokeColor=none;fillColor=none;align=left;verticalAlign=middle;spacingLeft=4;spacingRight=4;overflow=hidden;points=[[0,0.5],[1,0.5]];portConstraint=eastwest;rotatable=0;whiteSpace=wrap;html=1;fontSize=14;" parent="vn9ZUetdtOLam17VPIby-25" vertex="1">
          <mxGeometry y="90" width="370" height="30" as="geometry" />
        </mxCell>
        <mxCell id="vn9ZUetdtOLam17VPIby-23" style="edgeStyle=orthogonalEdgeStyle;rounded=0;orthogonalLoop=1;jettySize=auto;html=1;entryX=0.5;entryY=0;entryDx=0;entryDy=0;strokeWidth=3;fillColor=#dae8fc;strokeColor=#6c8ebf;" parent="1" source="vn9ZUetdtOLam17VPIby-19" target="vn9ZUetdtOLam17VPIby-25" edge="1">
          <mxGeometry relative="1" as="geometry">
            <mxPoint x="1185.71" y="415.0000000000002" as="targetPoint" />
            <Array as="points">
              <mxPoint x="775" y="450" />
              <mxPoint x="775" y="450" />
            </Array>
          </mxGeometry>
        </mxCell>
        <mxCell id="vn9ZUetdtOLam17VPIby-31" style="edgeStyle=orthogonalEdgeStyle;rounded=0;orthogonalLoop=1;jettySize=auto;html=1;entryX=1;entryY=0.5;entryDx=0;entryDy=0;exitX=0;exitY=0.5;exitDx=0;exitDy=0;fillColor=#dae8fc;strokeColor=#6c8ebf;strokeWidth=3;" parent="1" source="vn9ZUetdtOLam17VPIby-29" target="vn9ZUetdtOLam17VPIby-34" edge="1">
          <mxGeometry relative="1" as="geometry">
            <mxPoint x="249.99999999999977" y="374.9999999999998" as="targetPoint" />
            <Array as="points">
              <mxPoint x="460" y="655" />
              <mxPoint x="460" y="575" />
            </Array>
          </mxGeometry>
        </mxCell>
        <mxCell id="vn9ZUetdtOLam17VPIby-32" value="Message Type and &lt;br&gt;&#39;Any&#39; Body" style="edgeLabel;html=1;align=center;verticalAlign=middle;resizable=0;points=[];fontSize=14;" parent="vn9ZUetdtOLam17VPIby-31" vertex="1" connectable="0">
          <mxGeometry x="-0.0943" y="2" relative="1" as="geometry">
            <mxPoint x="62" y="81" as="offset" />
          </mxGeometry>
        </mxCell>
        <mxCell id="vn9ZUetdtOLam17VPIby-33" value="&lt;b style=&quot;border-color: var(--border-color); font-size: 16px;&quot;&gt;Consume&lt;/b&gt;" style="swimlane;fontStyle=0;childLayout=stackLayout;horizontal=1;startSize=30;horizontalStack=0;resizeParent=1;resizeParentMax=0;resizeLast=0;collapsible=1;marginBottom=0;whiteSpace=wrap;html=1;fillColor=#d5e8d4;strokeColor=#82b366;" parent="1" vertex="1">
          <mxGeometry x="70" y="530" width="190" height="120" as="geometry">
            <mxRectangle x="370" y="354" width="140" height="30" as="alternateBounds" />
          </mxGeometry>
        </mxCell>
        <mxCell id="vn9ZUetdtOLam17VPIby-34" value="Switch on type" style="text;strokeColor=none;fillColor=none;align=left;verticalAlign=middle;spacingLeft=4;spacingRight=4;overflow=hidden;points=[[0,0.5],[1,0.5]];portConstraint=eastwest;rotatable=0;whiteSpace=wrap;html=1;fontSize=14;" parent="vn9ZUetdtOLam17VPIby-33" vertex="1">
          <mxGeometry y="30" width="190" height="30" as="geometry" />
        </mxCell>
        <mxCell id="vn9ZUetdtOLam17VPIby-35" value="Unpack into proper type" style="text;strokeColor=none;fillColor=none;align=left;verticalAlign=middle;spacingLeft=4;spacingRight=4;overflow=hidden;points=[[0,0.5],[1,0.5]];portConstraint=eastwest;rotatable=0;whiteSpace=wrap;html=1;fontSize=14;" parent="vn9ZUetdtOLam17VPIby-33" vertex="1">
          <mxGeometry y="60" width="190" height="30" as="geometry" />
        </mxCell>
        <mxCell id="vn9ZUetdtOLam17VPIby-36" value="Handle message" style="text;strokeColor=none;fillColor=none;align=left;verticalAlign=middle;spacingLeft=4;spacingRight=4;overflow=hidden;points=[[0,0.5],[1,0.5]];portConstraint=eastwest;rotatable=0;whiteSpace=wrap;html=1;fontSize=14;" parent="vn9ZUetdtOLam17VPIby-33" vertex="1">
          <mxGeometry y="90" width="190" height="30" as="geometry" />
        </mxCell>
        <mxCell id="vn9ZUetdtOLam17VPIby-38" value="" style="endArrow=none;dashed=1;html=1;dashPattern=1 3;strokeWidth=3;rounded=0;" parent="1" edge="1">
          <mxGeometry width="50" height="50" relative="1" as="geometry">
            <mxPoint x="430" y="735" as="sourcePoint" />
            <mxPoint x="430" y="5" as="targetPoint" />
          </mxGeometry>
        </mxCell>
        <mxCell id="vn9ZUetdtOLam17VPIby-41" value="&lt;b&gt;&lt;font style=&quot;font-size: 20px;&quot;&gt;Generic Pod&lt;/font&gt;&lt;/b&gt;" style="text;html=1;strokeColor=none;fillColor=none;align=center;verticalAlign=middle;whiteSpace=wrap;rounded=0;" parent="1" vertex="1">
          <mxGeometry x="427" y="754" width="140" height="30" as="geometry" />
        </mxCell>
        <mxCell id="vn9ZUetdtOLam17VPIby-42" value="&lt;b&gt;&lt;font style=&quot;font-size: 20px;&quot;&gt;Application container&lt;/font&gt;&lt;/b&gt;" style="text;html=1;strokeColor=#82b366;fillColor=#d5e8d4;align=center;verticalAlign=middle;whiteSpace=wrap;rounded=0;" parent="1" vertex="1">
          <mxGeometry x="170" y="10" width="250" height="30" as="geometry" />
        </mxCell>
        <mxCell id="vn9ZUetdtOLam17VPIby-43" value="&lt;b&gt;&lt;font style=&quot;font-size: 20px;&quot;&gt;Sidecar container&lt;/font&gt;&lt;/b&gt;" style="text;html=1;strokeColor=#6c8ebf;fillColor=#dae8fc;align=center;verticalAlign=middle;whiteSpace=wrap;rounded=0;" parent="1" vertex="1">
          <mxGeometry x="440" y="10" width="250" height="30" as="geometry" />
        </mxCell>
        <mxCell id="vn9ZUetdtOLam17VPIby-45" value="" style="strokeWidth=1;outlineConnect=0;dashed=0;align=center;html=1;fontSize=8;shape=mxgraph.eip.dataChannel;verticalLabelPosition=bottom;labelBackgroundColor=#ffffff;verticalAlign=top;" parent="1" vertex="1">
          <mxGeometry x="930" y="404" width="190" height="20" as="geometry" />
        </mxCell>
        <mxCell id="vn9ZUetdtOLam17VPIby-48" value="&lt;b&gt;&lt;font style=&quot;font-size: 14px;&quot;&gt;Message queue&lt;/font&gt;&lt;/b&gt;" style="text;html=1;strokeColor=none;fillColor=none;align=center;verticalAlign=middle;whiteSpace=wrap;rounded=0;" parent="1" vertex="1">
          <mxGeometry x="1080" y="440" width="60" height="30" as="geometry" />
        </mxCell>
        <mxCell id="vn9ZUetdtOLam17VPIby-52" style="edgeStyle=orthogonalEdgeStyle;rounded=0;orthogonalLoop=1;jettySize=auto;html=1;fillColor=#d5e8d4;strokeColor=#82b366;strokeWidth=3;" parent="1" source="vn9ZUetdtOLam17VPIby-10" target="vn9ZUetdtOLam17VPIby-33" edge="1">
          <mxGeometry relative="1" as="geometry">
            <Array as="points">
              <mxPoint x="165" y="290" />
              <mxPoint x="165" y="290" />
            </Array>
          </mxGeometry>
        </mxCell>
        <mxCell id="vn9ZUetdtOLam17VPIby-55" value="&lt;b&gt;1&lt;/b&gt;" style="ellipse;whiteSpace=wrap;html=1;aspect=fixed;strokeWidth=2;fontFamily=Tahoma;spacingBottom=4;spacingRight=2;strokeColor=#82b366;fontSize=14;fillColor=#d5e8d4;" parent="1" vertex="1">
          <mxGeometry x="330" y="130" width="30" height="30" as="geometry" />
        </mxCell>
        <mxCell id="vn9ZUetdtOLam17VPIby-56" value="" style="sketch=0;html=1;dashed=0;whitespace=wrap;fillColor=#2875E2;strokeColor=#ffffff;points=[[0.005,0.63,0],[0.1,0.2,0],[0.9,0.2,0],[0.5,0,0],[0.995,0.63,0],[0.72,0.99,0],[0.5,1,0],[0.28,0.99,0]];verticalLabelPosition=bottom;align=center;verticalAlign=top;shape=mxgraph.kubernetes.icon;prIcon=pod" parent="1" vertex="1">
          <mxGeometry x="381" y="741" width="50" height="48" as="geometry" />
        </mxCell>
        <mxCell id="vn9ZUetdtOLam17VPIby-59" value="&lt;b&gt;2&lt;/b&gt;" style="ellipse;whiteSpace=wrap;html=1;aspect=fixed;strokeWidth=2;fontFamily=Tahoma;spacingBottom=4;spacingRight=2;strokeColor=#82b366;fontSize=14;fillColor=#d5e8d4;" parent="1" vertex="1">
          <mxGeometry x="480" y="220" width="30" height="30" as="geometry" />
        </mxCell>
        <mxCell id="vn9ZUetdtOLam17VPIby-60" value="&lt;b&gt;3&lt;/b&gt;" style="ellipse;whiteSpace=wrap;html=1;aspect=fixed;strokeWidth=2;fontFamily=Tahoma;spacingBottom=4;spacingRight=2;strokeColor=#6c8ebf;fontSize=14;fillColor=#dae8fc;" parent="1" vertex="1">
          <mxGeometry x="740" y="480" width="30" height="30" as="geometry" />
        </mxCell>
        <mxCell id="vn9ZUetdtOLam17VPIby-61" value="&lt;b&gt;4&lt;/b&gt;" style="ellipse;whiteSpace=wrap;html=1;aspect=fixed;strokeWidth=2;fontFamily=Tahoma;spacingBottom=4;spacingRight=2;strokeColor=#6c8ebf;fontSize=14;fillColor=#dae8fc;" parent="1" vertex="1">
          <mxGeometry x="470" y="595" width="30" height="30" as="geometry" />
        </mxCell>
        <mxCell id="vn9ZUetdtOLam17VPIby-62" value="&lt;b&gt;2&lt;/b&gt;" style="ellipse;whiteSpace=wrap;html=1;aspect=fixed;strokeWidth=2;fontFamily=Tahoma;spacingBottom=4;spacingRight=2;strokeColor=#82b366;fontSize=14;fillColor=#d5e8d4;" parent="1" vertex="1">
          <mxGeometry x="170" y="355" width="30" height="30" as="geometry" />
        </mxCell>
      </root>
    </mxGraphModel>
  </diagram>
</mxfile>
